HIERARCHY
ROOT Hips
{
	OFFSET 0.000000 71.427986 0.000000
	CHANNELS 6 Xposition Yposition Zposition Xrotation Yrotation Zrotation
	JOINT Pelvis
	{
		OFFSET 0.000000 0.000000 0.000000
		CHANNELS 3 Xrotation Yrotation Zrotation
		JOINT LeftUpLeg
		{
			OFFSET 6.797100 -2.508499 -1.318700
			CHANNELS 3 Xrotation Yrotation Zrotation
			JOINT LeftLeg
			{
				OFFSET 0.069008 -29.241863 0.690200
				CHANNELS 3 Xrotation Yrotation Zrotation
				JOINT LeftFoot
				{
					OFFSET -0.069008 -29.568123 -0.266800
					CHANNELS 3 Xrotation Yrotation Zrotation
					JOINT LeftToeBase
					{
						OFFSET 3.145500 -8.631000 16.059900
						CHANNELS 3 Xrotation Yrotation Zrotation
						End Site
						{
							OFFSET 0.000000 18.501587 0.000000
						}
					}
				}
			}
			JOINT Left_ShortSleeve
			{
				OFFSET 0.265923 -10.480953 1.153800
				CHANNELS 3 Xrotation Yrotation Zrotation
				End Site
				{
					OFFSET 1.725763 19.823879 0.000000
				}
			}
		}
		JOINT RightUpLeg
		{
			OFFSET -6.797100 -2.508499 -1.318700
			CHANNELS 3 Xrotation Yrotation Zrotation
			JOINT RightLeg
			{
				OFFSET -0.082453 -29.241932 0.688000
				CHANNELS 3 Xrotation Yrotation Zrotation
				JOINT RightFoot
				{
					OFFSET 0.082453 -29.568058 -0.264600
					CHANNELS 3 Xrotation Yrotation Zrotation
					JOINT RightToeBase
					{
						OFFSET -3.115300 -8.682800 16.113400
						CHANNELS 3 Xrotation Yrotation Zrotation
						End Site
						{
							OFFSET 0.000000 18.567114 0.000000
						}
					}
				}
			}
			JOINT Right_ShortSleeve
			{
				OFFSET -0.265923 -10.480953 1.153800
				CHANNELS 3 Xrotation Yrotation Zrotation
				End Site
				{
					OFFSET -1.725766 19.823910 0.000000
				}
			}
		}
	}
	JOINT Spine
	{
		OFFSET 0.000000 13.368103 0.470500
		CHANNELS 3 Xrotation Yrotation Zrotation
		JOINT Spine1
		{
			OFFSET 0.147000 13.837402 0.538800
			CHANNELS 3 Xrotation Yrotation Zrotation
			JOINT Spine2
			{
				OFFSET 0.168000 16.242897 -1.435500
				CHANNELS 3 Xrotation Yrotation Zrotation
				JOINT Neck
				{
					OFFSET 0.217200 18.631500 -1.679100
					CHANNELS 3 Xrotation Yrotation Zrotation
					JOINT Head
					{
						OFFSET 0.000000 6.599396 1.385900
						CHANNELS 3 Xrotation Yrotation Zrotation
						JOINT Hat
						{
							OFFSET -0.532200 27.220596 -10.096100
							CHANNELS 3 Xrotation Yrotation Zrotation
							End Site
							{
								OFFSET 0.000000 22.029861 0.000000
							}
						}
						JOINT HairD
						{
							OFFSET -10.777400 17.437393 -1.325900
							CHANNELS 3 Xrotation Yrotation Zrotation
							JOINT HairD1
							{
								OFFSET -3.290299 -11.051193 1.062200
								CHANNELS 3 Xrotation Yrotation Zrotation
								End Site
								{
									OFFSET 0.000000 11.579437 0.000000
								}
							}
						}
						JOINT HairB
						{
							OFFSET -10.777400 17.437393 1.467900
							CHANNELS 3 Xrotation Yrotation Zrotation
							JOINT HairB1
							{
								OFFSET -1.561200 -12.956299 3.590200
								CHANNELS 3 Xrotation Yrotation Zrotation
								End Site
								{
									OFFSET 0.000000 13.534866 0.000000
								}
							}
						}
						JOINT HairA
						{
							OFFSET 9.713100 17.437393 1.467900
							CHANNELS 3 Xrotation Yrotation Zrotation
							JOINT HairA1
							{
								OFFSET 1.561200 -12.956299 3.590200
								CHANNELS 3 Xrotation Yrotation Zrotation
								End Site
								{
									OFFSET 0.000000 13.534866 0.000000
								}
							}
						}
						JOINT HairC
						{
							OFFSET 9.713100 17.437393 -1.325900
							CHANNELS 3 Xrotation Yrotation Zrotation
							JOINT HairC1
							{
								OFFSET 3.290300 -11.051193 1.062200
								CHANNELS 3 Xrotation Yrotation Zrotation
								End Site
								{
									OFFSET 0.000000 11.579437 0.000000
								}
							}
						}
					}
				}
				JOINT LeftShoulder
				{
					OFFSET 5.101800 15.108002 -2.763700
					CHANNELS 3 Xrotation Yrotation Zrotation
					JOINT LeftArm
					{
						OFFSET 9.825497 2.506317 -1.597400
						CHANNELS 3 Xrotation Yrotation Zrotation
						JOINT LeftForeArm
						{
							OFFSET 21.966244 0.000000 0.000000
							CHANNELS 3 Xrotation Yrotation Zrotation
							JOINT LeftHand
							{
								OFFSET 33.879036 0.000000 0.000000
								CHANNELS 3 Xrotation Yrotation Zrotation
								JOINT LeftHandThumb1
								{
									OFFSET 6.715286 -2.359680 3.363841
									CHANNELS 3 Xrotation Yrotation Zrotation
									JOINT LeftHandThumb2
									{
										OFFSET 2.507072 -1.447464 1.447461
										CHANNELS 3 Xrotation Yrotation Zrotation
										JOINT LeftHandThumb3
										{
											OFFSET 2.898338 -1.673355 1.673357
											CHANNELS 3 Xrotation Yrotation Zrotation
											End Site
											{
												OFFSET -0.295959 3.727692 -0.131651
											}
										}
									}
								}
								JOINT LeftHandIndex1
								{
									OFFSET 14.190811 -0.254547 3.840278
									CHANNELS 3 Xrotation Yrotation Zrotation
									JOINT LeftHandIndex2
									{
										OFFSET 3.551727 0.000000 -0.000000
										CHANNELS 3 Xrotation Yrotation Zrotation
										JOINT LeftHandIndex3
										{
											OFFSET 2.894196 0.000000 0.000000
											CHANNELS 3 Xrotation Yrotation Zrotation
											End Site
											{
												OFFSET -1.000603 2.690872 0.366626
											}
										}
									}
								}
								JOINT LeftHandMiddle1
								{
									OFFSET 13.776489 0.000000 0.000000
									CHANNELS 3 Xrotation Yrotation Zrotation
									JOINT LeftHandMiddle2
									{
										OFFSET 3.438232 0.000000 0.000000
										CHANNELS 3 Xrotation Yrotation Zrotation
										JOINT LeftHandMiddle3
										{
											OFFSET 3.691551 0.000000 0.000000
											CHANNELS 3 Xrotation Yrotation Zrotation
											End Site
											{
												OFFSET -1.082298 3.499527 0.457670
											}
										}
									}
								}
								JOINT LeftHandRing1
								{
									OFFSET 13.966164 -0.268127 -3.067488
									CHANNELS 3 Xrotation Yrotation Zrotation
									JOINT LeftHandRing2
									{
										OFFSET 3.162567 0.000000 0.000000
										CHANNELS 3 Xrotation Yrotation Zrotation
										JOINT LeftHandRing3
										{
											OFFSET 3.324348 0.000000 0.000000
											CHANNELS 3 Xrotation Yrotation Zrotation
											End Site
											{
												OFFSET -0.861900 3.184998 0.405154
											}
										}
									}
								}
								JOINT LeftHandPinky1
								{
									OFFSET 13.131393 -0.168503 -5.746925
									CHANNELS 3 Xrotation Yrotation Zrotation
									JOINT LeftHandPinky2
									{
										OFFSET 2.849182 0.000000 0.000000
										CHANNELS 3 Xrotation Yrotation Zrotation
										JOINT LeftHandPinky3
										{
											OFFSET 2.805038 0.000000 0.000000
											CHANNELS 3 Xrotation Yrotation Zrotation
											End Site
											{
												OFFSET -0.882500 2.642609 0.325652
											}
										}
									}
								}
							}
							JOINT Left_Sleeve
							{
								OFFSET 6.592125 -0.646545 0.805568
								CHANNELS 3 Xrotation Yrotation Zrotation
								End Site
								{
									OFFSET -0.000179 20.275787 -0.000000
								}
							}
						}
					}
				}
				JOINT RightShoulder
				{
					OFFSET -5.731700 15.108002 -2.763700
					CHANNELS 3 Xrotation Yrotation Zrotation
					JOINT RightArm
					{
						OFFSET -9.825497 2.506317 -1.597400
						CHANNELS 3 Xrotation Yrotation Zrotation
						JOINT RightForeArm
						{
							OFFSET -21.966242 0.000000 0.000000
							CHANNELS 3 Xrotation Yrotation Zrotation
							JOINT RightHand
							{
								OFFSET -33.879032 0.000000 0.000000
								CHANNELS 3 Xrotation Yrotation Zrotation
								JOINT RightHandThumb1
								{
									OFFSET -6.715286 -2.359680 3.363841
									CHANNELS 3 Xrotation Yrotation Zrotation
									JOINT RightHandThumb2
									{
										OFFSET -2.507072 -1.447464 1.447461
										CHANNELS 3 Xrotation Yrotation Zrotation
										JOINT RightHandThumb3
										{
											OFFSET -2.898338 -1.673355 1.673357
											CHANNELS 3 Xrotation Yrotation Zrotation
											End Site
											{
												OFFSET 0.295959 3.727692 -0.131651
											}
										}
									}
								}
								JOINT RightHandIndex1
								{
									OFFSET -14.190811 -0.254547 3.840278
									CHANNELS 3 Xrotation Yrotation Zrotation
									JOINT RightHandIndex2
									{
										OFFSET -3.551727 0.000000 -0.000000
										CHANNELS 3 Xrotation Yrotation Zrotation
										JOINT RightHandIndex3
										{
											OFFSET -2.894196 0.000000 0.000000
											CHANNELS 3 Xrotation Yrotation Zrotation
											End Site
											{
												OFFSET 1.000603 2.690872 0.366626
											}
										}
									}
								}
								JOINT RightHandMiddle1
								{
									OFFSET -13.776489 0.000000 0.000000
									CHANNELS 3 Xrotation Yrotation Zrotation
									JOINT RightHandMiddle2
									{
										OFFSET -3.438232 0.000000 0.000000
										CHANNELS 3 Xrotation Yrotation Zrotation
										JOINT RightHandMiddle3
										{
											OFFSET -3.691551 0.000000 0.000000
											CHANNELS 3 Xrotation Yrotation Zrotation
											End Site
											{
												OFFSET 1.082298 3.499527 0.457670
											}
										}
									}
								}
								JOINT RightHandRing1
								{
									OFFSET -13.966164 -0.268127 -3.067488
									CHANNELS 3 Xrotation Yrotation Zrotation
									JOINT RightHandRing2
									{
										OFFSET -3.162567 0.000000 0.000000
										CHANNELS 3 Xrotation Yrotation Zrotation
										JOINT RightHandRing3
										{
											OFFSET -3.324348 0.000000 0.000000
											CHANNELS 3 Xrotation Yrotation Zrotation
											End Site
											{
												OFFSET 0.861900 3.184998 0.405154
											}
										}
									}
								}
								JOINT RightHandPinky1
								{
									OFFSET -13.131393 -0.168503 -5.746925
									CHANNELS 3 Xrotation Yrotation Zrotation
									JOINT RightHandPinky2
									{
										OFFSET -2.849182 0.000000 0.000000
										CHANNELS 3 Xrotation Yrotation Zrotation
										JOINT RightHandPinky3
										{
											OFFSET -2.805038 0.000000 0.000000
											CHANNELS 3 Xrotation Yrotation Zrotation
											End Site
											{
												OFFSET 0.882500 2.642609 0.325652
											}
										}
									}
								}
							}
							JOINT Right_Sleeve
							{
								OFFSET -6.592125 -0.646545 0.805568
								CHANNELS 3 Xrotation Yrotation Zrotation
								End Site
								{
									OFFSET 0.000179 20.275787 -0.000000
								}
							}
						}
					}
				}
				JOINT Bind_Right_JacketString
				{
					OFFSET -3.534800 11.969597 7.200700
					CHANNELS 3 Xrotation Yrotation Zrotation
					JOINT Bind_Right_JacketString1
					{
						OFFSET -0.319900 -6.102600 2.794100
						CHANNELS 3 Xrotation Yrotation Zrotation
						End Site
						{
							OFFSET 0.000000 6.719452 0.000000
						}
					}
				}
				JOINT Bind_Left_JacketString
				{
					OFFSET 2.904800 11.969597 7.200700
					CHANNELS 3 Xrotation Yrotation Zrotation
					JOINT Bind_Left_JacketString1
					{
						OFFSET 0.364800 -5.904503 3.186800
						CHANNELS 3 Xrotation Yrotation Zrotation
						End Site
						{
							OFFSET 0.000000 6.719513 0.000000
						}
					}
				}
				JOINT HairE
				{
					OFFSET 5.915200 17.612701 -11.592200
					CHANNELS 3 Xrotation Yrotation Zrotation
					JOINT HairE1
					{
						OFFSET 0.289200 -7.171898 -1.284500
						CHANNELS 3 Xrotation Yrotation Zrotation
						End Site
						{
							OFFSET 0.000000 7.291756 0.000000
						}
					}
				}
				JOINT HairF
				{
					OFFSET -0.864800 17.612701 -11.592200
					CHANNELS 3 Xrotation Yrotation Zrotation
					JOINT HairF1
					{
						OFFSET 0.000000 -14.087097 -2.127501
						CHANNELS 3 Xrotation Yrotation Zrotation
						End Site
						{
							OFFSET 0.000000 14.246841 0.000000
						}
					}
				}
				JOINT HairG
				{
					OFFSET -8.087700 17.612701 -11.592200
					CHANNELS 3 Xrotation Yrotation Zrotation
					JOINT HairG1
					{
						OFFSET -0.293600 -6.081398 -0.910100
						CHANNELS 3 Xrotation Yrotation Zrotation
						End Site
						{
							OFFSET 0.000000 6.156120 0.000000
						}
					}
				}
			}
		}
	}
	JOINT Pouch
	{
		OFFSET 0.000000 4.394501 10.847300
		CHANNELS 3 Xrotation Yrotation Zrotation
		End Site
		{
			OFFSET 0.000000 21.880577 0.000000
		}
	}
	JOINT Bag
	{
		OFFSET -13.229000 4.813004 -0.593300
		CHANNELS 3 Xrotation Yrotation Zrotation
		End Site
		{
			OFFSET 0.000000 21.880577 0.000000
		}
	}
	JOINT OccupyGuyFacialAnim_Joint
	{
		OFFSET 1.000000 -70.206398 -1.655000
		CHANNELS 3 Xrotation Yrotation Zrotation
		End Site
		{
			OFFSET 0.000000 21.880577 0.000000
		}
	}
}
MOTION
Frames: 4
Frame Time: 0.033333
-0.075821 53.969246 -0.555112 -8.745386 -2.458239 -5.555822 0.000000 0.000000 -0.000000 -58.003531 -0.110860 12.485695 59.576414 -4.057623 3.461927 6.566373 0.059828 -4.577108 -0.000000 -0.000000 -0.000000 0.000001 0.000000 -0.000000 -54.868323 -4.042312 -8.013871 58.777248 -1.313423 2.491325 3.391811 -0.098125 2.411986 0.000000 0.000000 0.000000 -0.000001 -0.000000 0.000001 22.291079 1.241298 2.295002 6.140664 0.947667 0.848958 6.158546 0.971428 0.748357 4.741396 0.531410 1.145650 -2.581161 6.604283 -8.289912 -0.000000 -0.000000 0.000000 -0.000000 -0.000000 0.000000 -0.000000 -0.000000 0.000000 -0.000000 -0.000000 -0.000000 -0.000000 -0.000000 -0.000000 -0.000000 -0.000000 -0.000000 -0.000000 -0.000000 -0.000000 -0.000000 -0.000000 0.000000 -0.000000 -0.000000 0.000000 0.252771 -8.080994 -17.935880 -13.377495 -27.893533 -43.020705 -0.000023 -58.857120 -0.000033 24.411067 11.420674 43.749964 -2.354193 3.438549 -6.492049 7.156455 20.590896 -1.787323 -0.000000 -0.000002 0.000000 -1.071335 0.000439 -30.248282 0.475122 2.517850 -21.369015 0.000003 0.000003 -0.000003 -0.202033 0.533147 -18.697989 0.932023 3.464300 -30.107931 0.000001 0.000001 -0.000003 -0.148567 0.874938 -20.860654 0.306626 2.035710 -17.129785 -0.000002 0.000000 0.000002 1.645300 7.093625 -14.556272 0.750511 -0.946693 -27.251760 0.000002 -0.000002 0.000001 0.000001 0.000002 -0.000000 0.559346 2.651084 9.706276 -27.161987 24.244299 49.126843 -0.000069 102.040649 0.000086 -5.246713 -4.574619 -14.173248 2.101962 -10.083007 3.633757 25.660766 -30.716696 6.844842 -0.000001 -0.000001 0.000001 9.556178 -7.137733 86.157919 10.350193 -6.061950 119.375519 0.000000 -0.000001 0.000000 6.610170 -6.940046 87.289435 9.494147 -6.467099 111.542658 0.000002 0.000003 -0.000000 1.946413 -7.142751 92.181128 8.379107 -6.799998 101.912365 -0.000002 -0.000000 -0.000002 -2.850686 -7.674974 94.127486 8.100953 -6.852412 99.572704 0.000001 0.000000 -0.000001 0.000000 0.000003 0.000002 -0.000002 0.000000 -0.000000 -0.000002 -0.000000 0.000000 -0.000002 0.000000 -0.000000 -0.000002 0.000000 -0.000000 -0.000002 0.000000 -0.000000 -0.000002 -0.000000 0.000000 -0.000002 0.000000 -0.000000 -0.000002 0.000000 -0.000000 -0.000002 0.000000 -0.000000 -0.000002 -0.000000 0.000000 0.000000 0.000000 -0.000000 0.000000 0.000000 -0.000000 0.000000 0.000000 -0.000000 
-0.102591 53.931839 -0.626244 -9.212121 -2.398571 -5.419059 -0.000001 -0.000000 0.000000 -57.587073 0.028536 12.412760 59.548294 -4.109951 3.464367 6.608704 0.063216 -4.540054 0.000000 0.000000 0.000000 -0.000001 0.000000 0.000001 -54.552325 -3.947638 -8.024426 58.897281 -1.392339 2.355123 3.417314 -0.096561 2.454971 0.000000 0.000000 0.000000 0.000001 -0.000001 -0.000000 21.932530 1.142906 2.508179 6.000149 0.896881 0.920053 6.018291 0.919860 0.819254 3.844444 0.506888 1.606013 -4.680591 6.699261 -7.299448 0.000003 -0.000000 -0.000000 0.000003 -0.000000 -0.000000 0.000003 -0.000000 -0.000000 0.000003 -0.000000 -0.000000 0.000003 -0.000000 -0.000000 0.000003 -0.000000 -0.000000 0.000003 -0.000000 -0.000000 0.000003 -0.000000 -0.000000 0.000003 -0.000000 -0.000000 0.230941 -8.200859 -18.248918 -12.911247 -28.868409 -42.419815 -0.000023 -56.671411 -0.000012 23.202335 10.807941 44.124736 -2.564255 3.175823 -6.207757 7.126722 20.496850 -1.765470 -0.000000 -0.000001 0.000001 -1.067482 0.015842 -30.310730 0.474088 2.515190 -21.345536 0.000003 0.000001 0.000000 -0.218085 0.479087 -18.637243 0.929375 3.459734 -30.064157 -0.000001 0.000001 -0.000001 -0.192089 0.761128 -20.878961 0.303644 2.025989 -17.045463 -0.000003 0.000000 0.000002 1.655769 7.091960 -14.666851 0.740826 -0.965582 -27.076255 -0.000003 -0.000001 0.000001 0.000001 0.000003 0.000002 0.560091 2.605495 10.098342 -26.661469 23.938635 49.480981 -0.000010 102.381961 0.000017 -0.801817 -4.559737 -15.340695 1.979449 -10.040822 3.518858 25.491181 -30.599637 6.785026 -0.000003 -0.000001 -0.000000 9.440984 -7.159000 85.600452 10.288327 -6.096186 118.791347 -0.000002 -0.000001 0.000004 6.537981 -6.936191 86.696807 9.431929 -6.491189 110.990922 0.000002 0.000000 -0.000001 1.922023 -7.088404 91.574935 8.337051 -6.808672 101.557659 -0.000001 -0.000001 -0.000001 -2.780360 -7.561977 93.523513 8.054253 -6.860056 99.181402 -0.000001 0.000003 0.000001 -0.000001 -0.000003 0.000000 0.000002 -0.000000 -0.000000 0.000002 -0.000000 -0.000000 0.000002 -0.000000 0.000000 0.000002 -0.000000 0.000000 0.000002 -0.000000 -0.000000 0.000002 -0.000000 -0.000000 0.000002 -0.000000 0.000000 0.000002 -0.000000 0.000000 0.000002 -0.000000 -0.000000 0.000002 -0.000000 -0.000000 -0.000001 -0.000000 0.000000 -0.000001 -0.000000 0.000000 -0.000001 -0.000000 0.000000 
-0.125390 53.888863 -0.680188 -9.595792 -2.305214 -5.266706 0.000001 -0.000000 0.000000 -57.255017 0.119132 12.288941 59.545002 -4.156744 3.463134 6.663164 0.064546 -4.568067 -0.000000 -0.000000 -0.000000 0.000002 0.000000 -0.000000 -54.327946 -3.858933 -8.092571 59.064614 -1.423021 2.225218 3.405650 -0.095604 2.511277 0.000000 0.000000 -0.000000 -0.000001 0.000000 -0.000000 21.587250 1.017258 2.710203 5.864108 0.836398 0.983444 5.882566 0.858184 0.882435 3.026401 0.497110 1.975778 -6.620875 6.794552 -6.409305 0.000001 0.000001 -0.000000 0.000001 0.000001 -0.000000 0.000001 0.000001 -0.000000 0.000001 0.000001 -0.000000 0.000001 0.000000 0.000000 0.000001 0.000001 -0.000000 0.000001 0.000000 0.000000 0.000001 0.000001 -0.000000 0.000001 0.000001 -0.000000 0.210134 -8.311732 -18.539603 -12.271128 -29.902404 -41.673306 -0.000029 -54.616447 -0.000023 21.848211 10.212171 44.556206 -2.770059 2.917544 -5.966695 7.086702 20.369608 -1.736017 -0.000000 -0.000004 0.000000 -1.064357 0.033545 -30.398880 0.474742 2.516864 -21.360483 -0.000000 0.000002 -0.000003 -0.235242 0.422395 -18.586046 0.927578 3.456638 -30.034404 -0.000003 -0.000001 0.000001 -0.228331 0.660470 -20.830334 0.301598 2.019331 -16.987645 -0.000001 0.000000 0.000002 1.653955 7.074693 -14.696422 0.734087 -0.978801 -26.953554 -0.000004 -0.000001 -0.000001 0.000004 0.000003 -0.000000 0.560959 2.610269 10.497176 -25.889875 23.904108 49.740702 0.000435 101.755960 -0.000442 3.737177 -4.578365 -16.719610 1.514889 -9.876654 3.083322 24.846473 -30.150186 6.557496 0.000001 -0.000002 -0.000001 8.999557 -7.226366 83.461701 10.048620 -6.221174 116.557328 -0.000001 0.000001 0.000002 6.259802 -6.914202 84.425755 9.191405 -6.577832 108.877785 0.000003 0.000000 -0.000004 1.832189 -6.882850 89.252807 8.174465 -6.839709 100.189176 -0.000001 0.000001 0.000000 -2.504082 -7.149067 91.197246 7.875314 -6.886411 97.686226 -0.000003 0.000002 -0.000001 0.000001 0.000002 0.000000 -0.000000 0.000000 -0.000000 -0.000000 0.000000 -0.000000 -0.000000 0.000000 -0.000000 -0.000000 0.000000 -0.000000 -0.000000 0.000000 -0.000000 -0.000000 0.000000 -0.000000 -0.000000 0.000000 -0.000000 -0.000000 0.000000 -0.000000 -0.000000 0.000000 -0.000000 -0.000000 0.000000 -0.000000 0.000001 -0.000000 0.000000 0.000001 -0.000000 0.000000 0.000001 -0.000000 0.000000 
-0.146698 53.847572 -0.719213 -9.883560 -2.139617 -5.095047 -0.000000 0.000000 0.000000 -56.997980 0.153884 12.068194 59.530679 -4.178521 3.471227 6.724585 0.064510 -4.625272 0.000000 0.000000 -0.000000 -0.000000 0.000000 0.000001 -54.190133 -3.795773 -8.256252 59.262676 -1.422142 2.123909 3.357859 -0.095097 2.562199 -0.000000 0.000001 0.000000 -0.000000 0.000000 -0.000000 21.239395 0.827271 2.906217 5.726180 0.752186 1.039251 5.745096 0.772563 0.937957 2.306298 0.493871 2.261517 -8.372822 6.842653 -5.586558 0.000001 0.000000 0.000000 0.000001 0.000000 0.000000 0.000001 0.000000 -0.000000 0.000001 0.000000 0.000000 -0.000001 0.000000 0.000000 0.000001 0.000000 0.000000 -0.000001 0.000000 0.000000 0.000001 0.000000 0.000000 0.000001 0.000000 0.000000 0.190816 -8.407107 -18.813898 -11.492573 -30.866369 -40.842158 -0.000016 -52.754660 -0.000029 20.532891 9.612942 44.979989 -2.983827 2.650235 -5.765664 7.032132 20.194965 -1.695770 -0.000000 0.000002 0.000001 -1.058822 0.058310 -30.508696 0.478364 2.526090 -21.442657 0.000001 0.000001 -0.000002 -0.252916 0.363807 -18.535129 0.926224 3.454273 -30.011732 0.000001 -0.000001 0.000004 -0.259688 0.568220 -20.740614 0.300253 2.014936 -16.949394 0.000001 0.000000 0.000002 1.639788 7.040725 -14.646501 0.729516 -0.987816 -26.869783 0.000000 0.000001 -0.000002 -0.000001 -0.000002 0.000001 0.561616 2.646805 10.918302 -24.896996 24.185241 49.895328 0.000187 100.230540 -0.000218 7.685877 -4.661041 -18.065036 0.743330 -9.588722 2.359481 23.771971 -29.385755 6.178044 0.000001 0.000000 0.000001 8.254356 -7.289267 79.841770 9.634267 -6.410352 112.792275 -0.000003 0.000002 0.000001 5.787748 -6.851124 80.588576 8.778543 -6.703972 105.308881 0.000003 0.000001 -0.000001 1.694437 -6.544979 85.331158 7.895543 -6.883676 97.854870 0.000003 -0.000004 -0.000003 -2.012034 -6.526286 87.235682 7.572725 -6.920238 95.169117 0.000000 0.000001 0.000001 0.000001 0.000000 -0.000001 0.000002 0.000000 0.000000 0.000000 0.000000 0.000000 0.000002 0.000000 0.000000 0.000002 0.000000 0.000000 0.000002 0.000000 0.000000 0.000000 0.000000 0.000000 0.000002 0.000000 0.000000 0.000002 0.000000 0.000000 0.000002 0.000000 0.000000 0.000000 0.000000 0.000000 -0.000000 0.000000 0.000000 -0.000000 0.000000 0.000000 -0.000000 0.000000 0.000000 
